<svg xmlns="http://www.w3.org/2000/svg" xmlns:xlink="http://www.w3.org/1999/xlink" version="1.1" x="0px" y="0px" viewBox="0 0 100 125" enable-background="new 0 0 100 100" xml:space="preserve"><path fill="#000000" stroke="#231F20" stroke-width="3.3461" stroke-miterlimit="10" d="M64.014,74.898"/><g><path d="M58.526,92.866H41.473L25.718,86.34L13.66,74.281L7.134,58.526V41.473l6.526-15.755L25.718,13.66l15.755-6.526h17.053   l15.755,6.526L86.34,25.718l6.526,15.755v17.053L86.34,74.281L74.281,86.34L58.526,92.866z M42.07,89.866h15.859l14.653-6.069   l11.215-11.215l6.069-14.653V42.07l-6.069-14.652L72.582,16.203l-14.653-6.069H42.07l-14.652,6.069L16.203,27.417L10.134,42.07   v15.859l6.069,14.653l11.214,11.215L42.07,89.866z"/></g><g><path d="M58.526,92.866H41.473L25.718,86.34L13.66,74.281L7.134,58.526V41.473l6.526-15.755L25.718,13.66l15.755-6.526h17.053   l15.755,6.526L86.34,25.718l6.526,15.755v17.053L86.34,74.281L74.281,86.34L58.526,92.866z M42.07,89.866h15.859l14.653-6.069   l11.215-11.215l6.069-14.653V42.07l-6.069-14.652L72.582,16.203l-14.653-6.069H42.07l-14.652,6.069L16.203,27.417L10.134,42.07   v15.859l6.069,14.653l11.214,11.215L42.07,89.866z"/></g><g><path d="M57.532,87.866H42.468l-13.917-5.765L17.899,71.449l-5.765-13.917V42.468l5.765-13.917l10.652-10.652l13.917-5.765h15.064   l13.917,5.765l10.652,10.652l5.765,13.917v15.064l-5.766,13.917L71.449,82.101L57.532,87.866z M43.064,84.866h13.87l12.815-5.309   l9.808-9.808l5.309-12.815v-13.87L79.559,30.25l-9.809-9.808l-12.815-5.308h-13.87L30.25,20.442l-9.808,9.808l-5.308,12.814v13.87   l5.308,12.815l9.808,9.809L43.064,84.866z"/></g><g><path d="M57.532,87.866H42.468l-13.917-5.765L17.899,71.449l-5.765-13.917V42.468l5.765-13.917l10.652-10.652l13.917-5.765h15.064   l13.917,5.765l10.652,10.652l5.765,13.917v15.064l-5.766,13.917L71.449,82.101L57.532,87.866z M43.064,84.866h13.87l12.815-5.309   l9.808-9.808l5.309-12.815v-13.87L79.559,30.25l-9.809-9.808l-12.815-5.308h-13.87L30.25,20.442l-9.808,9.808l-5.308,12.814v13.87   l5.308,12.815l9.808,9.809L43.064,84.866z"/></g><g><path d="M56.537,82.866H43.462l-12.079-5.004l-9.246-9.245l-5.004-12.079V43.462l5.004-12.079l9.246-9.246l12.079-5.004h13.076   l12.079,5.004l9.245,9.246l5.004,12.079v13.075l-5.004,12.08l-9.245,9.245L56.537,82.866z M44.059,79.866h11.88l10.979-4.547   l8.401-8.401l4.547-10.979v-11.88l-4.547-10.977l-8.401-8.402L55.94,20.134H44.059l-10.977,4.547l-8.402,8.402l-4.547,10.977V55.94   l4.547,10.978l8.402,8.401L44.059,79.866z"/></g><g><path d="M56.537,82.866H43.462l-12.079-5.004l-9.246-9.245l-5.004-12.079V43.462l5.004-12.079l9.246-9.246l12.079-5.004h13.076   l12.079,5.004l9.245,9.246l5.004,12.079v13.075l-5.004,12.08l-9.245,9.245L56.537,82.866z M44.059,79.866h11.88l10.979-4.547   l8.401-8.401l4.547-10.979v-11.88l-4.547-10.977l-8.401-8.402L55.94,20.134H44.059l-10.977,4.547l-8.402,8.402l-4.547,10.977V55.94   l4.547,10.978l8.402,8.401L44.059,79.866z"/></g><g><path d="M55.543,77.866H44.457l-10.241-4.242l-7.839-7.839l-4.243-10.241V44.457l4.243-10.241l7.839-7.839l10.241-4.243h11.087   l10.241,4.243l7.839,7.839l4.242,10.241v11.086l-4.243,10.242l-7.838,7.838L55.543,77.866z M45.054,74.866h9.892l9.141-3.786   l6.994-6.994l3.786-9.141v-9.892l-3.785-9.139l-6.995-6.996l-9.14-3.786h-9.893l-9.139,3.786l-6.996,6.996l-3.786,9.139v9.893   l3.786,9.14l6.996,6.995L45.054,74.866z"/></g><g><path d="M55.543,77.866H44.457l-10.241-4.242l-7.839-7.839l-4.243-10.241V44.457l4.243-10.241l7.839-7.839l10.241-4.243h11.087   l10.241,4.243l7.839,7.839l4.242,10.241v11.086l-4.243,10.242l-7.838,7.838L55.543,77.866z M45.054,74.866h9.892l9.141-3.786   l6.994-6.994l3.786-9.141v-9.892l-3.785-9.139l-6.995-6.996l-9.14-3.786h-9.893l-9.139,3.786l-6.996,6.996l-3.786,9.139v9.893   l3.786,9.14l6.996,6.995L45.054,74.866z"/></g><g><path d="M54.547,72.866h-9.095l-8.404-3.481l-6.433-6.432l-3.481-8.403v-9.098l3.481-8.403l6.433-6.433l8.403-3.481h9.098   l8.403,3.481l6.432,6.433l3.481,8.404v9.095l-3.481,8.406l-6.432,6.432L54.547,72.866z M46.048,69.866h7.903l7.303-3.024   l5.588-5.588l3.024-7.303v-7.903l-3.024-7.301l-5.588-5.589l-7.302-3.024h-7.904l-7.301,3.024l-5.589,5.589l-3.024,7.301v7.904   l3.024,7.302l5.589,5.588L46.048,69.866z"/></g><g><path d="M54.547,72.866h-9.095l-8.404-3.481l-6.433-6.432l-3.481-8.403v-9.098l3.481-8.403l6.433-6.433l8.403-3.481h9.098   l8.403,3.481l6.432,6.433l3.481,8.404v9.095l-3.481,8.406l-6.432,6.432L54.547,72.866z M46.048,69.866h7.903l7.303-3.024   l5.588-5.588l3.024-7.303v-7.903l-3.024-7.301l-5.588-5.589l-7.302-3.024h-7.904l-7.301,3.024l-5.589,5.589l-3.024,7.301v7.904   l3.024,7.302l5.589,5.588L46.048,69.866z"/></g><g><path d="M53.554,67.866h-7.107l-6.566-2.721l-5.026-5.025l-2.72-6.565v-7.108l2.72-6.565l5.027-5.027l6.565-2.72h7.108l6.565,2.72   l5.025,5.026l2.721,6.566v7.107l-2.721,6.567l-5.024,5.024L53.554,67.866z M47.043,64.866h5.913l5.466-2.264l4.181-4.181   l2.264-5.466v-5.913l-2.264-5.464l-4.182-4.182l-5.464-2.263h-5.914l-5.463,2.263l-4.183,4.183l-2.263,5.463v5.914l2.263,5.464   l4.182,4.182L47.043,64.866z"/></g><g><path d="M53.554,67.866h-7.107l-6.566-2.721l-5.026-5.025l-2.72-6.565v-7.108l2.72-6.565l5.027-5.027l6.565-2.72h7.108l6.565,2.72   l5.025,5.026l2.721,6.566v7.107l-2.721,6.567l-5.024,5.024L53.554,67.866z M47.043,64.866h5.913l5.466-2.264l4.181-4.181   l2.264-5.466v-5.913l-2.264-5.464l-4.182-4.182l-5.464-2.263h-5.914l-5.463,2.263l-4.183,4.183l-2.263,5.463v5.914l2.263,5.464   l4.182,4.182L47.043,64.866z"/></g><g><path d="M52.56,62.866h-5.119l-4.729-1.959l-3.62-3.619l-1.959-4.729v-5.119l1.959-4.728l3.621-3.621l4.728-1.959h5.119   l4.729,1.959l3.619,3.62l1.959,4.729v5.119l-1.96,4.729l-3.617,3.617L52.56,62.866z M48.038,59.866h3.924l3.628-1.503l2.773-2.773   l1.503-3.628v-3.924l-1.502-3.626l-2.775-2.776l-3.627-1.502h-3.924l-3.625,1.502l-2.777,2.777l-1.502,3.625v3.924l1.502,3.627   l2.776,2.775L48.038,59.866z"/></g><text x="0" y="115" fill="#000000" font-size="5px" font-weight="bold" font-family="'Helvetica Neue', Helvetica, Arial-Unicode, Arial, Sans-serif">Created by Gimzy7</text><text x="0" y="120" fill="#000000" font-size="5px" font-weight="bold" font-family="'Helvetica Neue', Helvetica, Arial-Unicode, Arial, Sans-serif">from the Noun Project</text></svg>